<?xml version="1.0" encoding="UTF-8" standalone="no"?>
<svg
   xmlns:dc="http://purl.org/dc/elements/1.1/"
   xmlns:cc="http://creativecommons.org/ns#"
   xmlns:rdf="http://www.w3.org/1999/02/22-rdf-syntax-ns#"
   xmlns:svg="http://www.w3.org/2000/svg"
   xmlns="http://www.w3.org/2000/svg"
   xmlns:sodipodi="http://sodipodi.sourceforge.net/DTD/sodipodi-0.dtd"
   xmlns:inkscape="http://www.inkscape.org/namespaces/inkscape"
   height="32"
   id="Layer_1"
   version="1.1"
   viewBox="0 0 32 32"
   width="32"
   xml:space="preserve"
   inkscape:version="0.91 r13725"
   sodipodi:docname="facebook.svg"><metadata
     id="metadata9"><rdf:RDF><cc:Work
         rdf:about=""><dc:format>image/svg+xml</dc:format><dc:type
           rdf:resource="http://purl.org/dc/dcmitype/StillImage" /><dc:title></dc:title></cc:Work></rdf:RDF></metadata><defs
     id="defs7" /><sodipodi:namedview
     pagecolor="#ffffff"
     bordercolor="#666666"
     borderopacity="1"
     objecttolerance="10"
     gridtolerance="10"
     guidetolerance="10"
     inkscape:pageopacity="0"
     inkscape:pageshadow="2"
     inkscape:window-width="1920"
     inkscape:window-height="1018"
     id="namedview5"
     showgrid="false"
     fit-margin-top="0"
     fit-margin-left="0"
     fit-margin-right="0"
     fit-margin-bottom="0"
     inkscape:zoom="3.5223881"
     inkscape:cx="15.588983"
     inkscape:cy="16.588983"
     inkscape:window-x="-8"
     inkscape:window-y="-8"
     inkscape:window-maximized="1"
     inkscape:current-layer="Layer_1" /><path
     d="m 13.741333,24.704 3.5968,0 0,-8.705067 2.399467,0 0.317867,-2.999467 -2.717334,0 0.0038,-1.501866 c 0,-0.781867 0.07466,-1.2016 1.1968,-1.2016 l 1.499733,0 0,-3 -2.399999,0 C 14.7558,7.296 13.7414,8.751466 13.7414,11.1984 l 0,1.801066 -1.7968,0 0,3.000001 1.7968,0 0,8.704533 z M 16,32 C 7.163733,32 0,24.836267 0,16 0,7.1632 7.163733,0 16,0 c 8.836267,0 16,7.1632 16,16 0,8.836267 -7.163733,16 -16,16 z"
     style="clip-rule:evenodd;fill:#262626;fill-rule:evenodd;fill-opacity:1"
     id="path3"
     inkscape:connector-curvature="0" /></svg>