<?xml version="1.0" encoding="UTF-8" standalone="no"?>
<svg
   xmlns:dc="http://purl.org/dc/elements/1.1/"
   xmlns:cc="http://creativecommons.org/ns#"
   xmlns:rdf="http://www.w3.org/1999/02/22-rdf-syntax-ns#"
   xmlns:svg="http://www.w3.org/2000/svg"
   xmlns="http://www.w3.org/2000/svg"
   xmlns:sodipodi="http://sodipodi.sourceforge.net/DTD/sodipodi-0.dtd"
   xmlns:inkscape="http://www.inkscape.org/namespaces/inkscape"
   enable-background="new 0 0 512 512"
   height="32"
   id="Layer_1"
   version="1.1"
   viewBox="0 0 32 32"
   width="32"
   xml:space="preserve"
   inkscape:version="0.91 r13725"
   sodipodi:docname="google.svg"><metadata
     id="metadata13"><rdf:RDF><cc:Work
         rdf:about=""><dc:format>image/svg+xml</dc:format><dc:type
           rdf:resource="http://purl.org/dc/dcmitype/StillImage" /><dc:title></dc:title></cc:Work></rdf:RDF></metadata><defs
     id="defs11" /><sodipodi:namedview
     pagecolor="#ffffff"
     bordercolor="#666666"
     borderopacity="1"
     objecttolerance="10"
     gridtolerance="10"
     guidetolerance="10"
     inkscape:pageopacity="0"
     inkscape:pageshadow="2"
     inkscape:window-width="1920"
     inkscape:window-height="1018"
     id="namedview9"
     showgrid="false"
     inkscape:zoom="14.75"
     inkscape:cx="3.3383423"
     inkscape:cy="15.918067"
     inkscape:window-x="-8"
     inkscape:window-y="-8"
     inkscape:window-maximized="1"
     inkscape:current-layer="Layer_1"
     fit-margin-top="0"
     fit-margin-left="0"
     fit-margin-right="0"
     fit-margin-bottom="0" /><g
     id="g3"
     transform="scale(0.0625,0.0625)"><path
       d="M 256.23,512 C 396.81,512 512,396.81 512,256.23 512,115.184 396.81,0 256.23,0 115.184,0 0,115.184 0,256.23 0,396.81 115.184,512 256.23,512 l 0,0 z"
       id="path5"
       inkscape:connector-curvature="0"
       style="clip-rule:evenodd;fill:#262626;fill-rule:evenodd;fill-opacity:1" /><path
       d="m 274.369,280.26 c -7.718,-5.891 -15.873,-11.343 -24.044,-18.139 -11.335,-9.523 -7.249,-23.131 4.538,-32.2 10.429,-8.163 22.678,-17.686 29.021,-26.755 18.592,-28.122 9.983,-68.024 -19.045,-88.889 l 26.31,0 28.56,-18.139 -90.24,0 c -65.306,0 -114.737,24.942 -110.652,85.709 2.719,41.723 40.816,64.399 87.976,59.408 -9.976,15.881 -3.172,31.754 8.616,44.44 -121.534,2.719 -135.595,70.742 -107.02,102.489 18.591,20.42 51.698,28.575 85.709,27.669 40.355,-0.453 82.538,-14.515 101.583,-41.73 16.325,-23.574 27.199,-57.133 -21.312,-93.863 l 0,0 z m 157.812,-40.364 -50.339,0 0,-48.073 -16.779,0 0,48.073 -52.15,0 0,16.334 52.15,0 0,47.604 16.779,0 0,-47.604 50.339,0 0,-16.334 z M 247.606,155.999 c 11.343,29.028 9.077,63.04 -21.771,72.563 -34.918,10.882 -61.22,-23.13 -66.657,-56.689 -4.086,-24.49 1.813,-48.526 25.396,-56.689 28.114,-9.523 51.698,13.154 63.032,40.815 l 0,0 z m -111.105,183.66 c 6.352,-33.105 46.706,-41.714 93.873,-41.714 18.592,13.154 37.637,25.856 45.354,39.901 5.437,10.89 4.078,26.31 -5.452,38.559 -11.78,14.498 -31.739,19.951 -50.784,21.311 -35.371,1.813 -64.853,-12.249 -77.546,-28.122 -6.804,-9.062 -7.71,-19.498 -5.445,-29.935 l 0,0 z"
       id="path7"
       inkscape:connector-curvature="0"
       style="clip-rule:evenodd;fill:#919191;fill-rule:evenodd;fill-opacity:1" /></g></svg>