<?xml version="1.0" encoding="UTF-8" standalone="no"?>
<svg
   xmlns:dc="http://purl.org/dc/elements/1.1/"
   xmlns:cc="http://creativecommons.org/ns#"
   xmlns:rdf="http://www.w3.org/1999/02/22-rdf-syntax-ns#"
   xmlns:svg="http://www.w3.org/2000/svg"
   xmlns="http://www.w3.org/2000/svg"
   xmlns:sodipodi="http://sodipodi.sourceforge.net/DTD/sodipodi-0.dtd"
   xmlns:inkscape="http://www.inkscape.org/namespaces/inkscape"
   height="32"
   id="Layer_1"
   version="1.1"
   viewBox="0 0 32 32"
   width="32"
   xml:space="preserve"
   inkscape:version="0.91 r13725"
   sodipodi:docname="linked.svg"><metadata
     id="metadata9"><rdf:RDF><cc:Work
         rdf:about=""><dc:format>image/svg+xml</dc:format><dc:type
           rdf:resource="http://purl.org/dc/dcmitype/StillImage" /><dc:title></dc:title></cc:Work></rdf:RDF></metadata><defs
     id="defs7" /><sodipodi:namedview
     pagecolor="#ffffff"
     bordercolor="#666666"
     borderopacity="1"
     objecttolerance="10"
     gridtolerance="10"
     guidetolerance="10"
     inkscape:pageopacity="0"
     inkscape:pageshadow="2"
     inkscape:window-width="1920"
     inkscape:window-height="1018"
     id="namedview5"
     showgrid="false"
     fit-margin-top="0"
     fit-margin-left="0"
     fit-margin-right="0"
     fit-margin-bottom="0"
     inkscape:zoom="3.5223881"
     inkscape:cx="29.5"
     inkscape:cy="30.5"
     inkscape:window-x="-8"
     inkscape:window-y="-8"
     inkscape:window-maximized="1"
     inkscape:current-layer="Layer_1" /><path
     d="m 24.979733,23.539733 0,-6.2464 c 0,-3.346666 -1.786666,-4.904 -4.168533,-4.904 -1.922133,0 -2.783467,1.0576 -3.263467,1.799467 l 0,-1.543467 -3.621333,0 c 0.048,1.0224 0,10.8944 0,10.8944 l 3.621333,0 0,-6.084266 c 0,-0.3248 0.02347,-0.650134 0.119467,-0.882667 0.261333,-0.650667 0.857067,-1.324267 1.857067,-1.324267 1.310933,0 1.834666,0.998934 1.834666,2.462934 l 0,5.8288 3.6208,0 z M 10.111467,11.1584 c 1.2624,0 2.049066,-0.837333 2.049066,-1.8832 -0.02347,-1.068267 -0.786666,-1.8816 -2.025066,-1.8816 -1.2384,0 -2.048534,0.8128 -2.048534,1.8816 0,1.045867 0.786134,1.8832 2.0016,1.8832 l 0.02293,0 z M 16,32 C 7.163733,32 0,24.836267 0,16 0,7.1632 7.163733,0 16,0 c 8.836267,0 16,7.1632 16,16 0,8.836267 -7.163733,16 -16,16 z m -4.077867,-8.460267 0,-10.8944 -3.6208,0 0,10.8944 3.6208,0 z"
     style="clip-rule:evenodd;fill:#262626;fill-rule:evenodd;fill-opacity:1"
     id="path3"
     inkscape:connector-curvature="0" /></svg>