<?xml version="1.0" encoding="UTF-8" standalone="no"?>
<!-- Generator: Adobe Illustrator 17.0.0, SVG Export Plug-In . SVG Version: 6.00 Build 0)  -->

<svg
   xmlns:dc="http://purl.org/dc/elements/1.1/"
   xmlns:cc="http://creativecommons.org/ns#"
   xmlns:rdf="http://www.w3.org/1999/02/22-rdf-syntax-ns#"
   xmlns:svg="http://www.w3.org/2000/svg"
   xmlns="http://www.w3.org/2000/svg"
   xmlns:sodipodi="http://sodipodi.sourceforge.net/DTD/sodipodi-0.dtd"
   xmlns:inkscape="http://www.inkscape.org/namespaces/inkscape"
   version="1.1"
   id="Слой_1"
   x="0px"
   y="0px"
   width="215.591"
   height="31.608007"
   viewBox="0 0 215.591 31.608007"
   enable-background="new 0 0 225.5 42.5"
   xml:space="preserve"
   inkscape:version="0.91 r13725"
   sodipodi:docname="logo.svg"><metadata
   id="metadata41"><rdf:RDF><cc:Work
       rdf:about=""><dc:format>image/svg+xml</dc:format><dc:type
         rdf:resource="http://purl.org/dc/dcmitype/StillImage" /><dc:title></dc:title></cc:Work></rdf:RDF></metadata><defs
   id="defs39" /><sodipodi:namedview
   pagecolor="#ffffff"
   bordercolor="#666666"
   borderopacity="1"
   objecttolerance="10"
   gridtolerance="10"
   guidetolerance="10"
   inkscape:pageopacity="0"
   inkscape:pageshadow="2"
   inkscape:window-width="1366"
   inkscape:window-height="706"
   id="namedview37"
   showgrid="false"
   fit-margin-top="0"
   fit-margin-left="0"
   fit-margin-right="0"
   fit-margin-bottom="0"
   inkscape:zoom="6.4878776"
   inkscape:cx="203.58162"
   inkscape:cy="27.920925"
   inkscape:window-x="-8"
   inkscape:window-y="-8"
   inkscape:window-maximized="1"
   inkscape:current-layer="Слой_1" />
<polygon
   points="65.025,19.656 51.667,25.356 50.489,22.597 57.383,19.655 36.153,10.592 15.007,19.61 21.748,22.606 20.529,25.348 7.493,19.554 36.154,7.33 "
   id="polygon3"
   transform="translate(-7.493,-7.33)" />
<path
   d="m 12.303,16.759 c -0.029,-0.228 -0.113,-1.428 1.029,-2.721 2.14,-2.424 7.198,-3.653 15.036,-3.653 15.859,0 16.663,5.093 16.663,6.114 l -3,0 c 0,0.099 0.01,0.144 0.01,0.145 -0.007,-0.033 -1.095,-3.259 -13.672,-3.259 -9.438,0 -12.086,1.845 -12.787,2.638 -0.046,0.052 -0.301,0.363 -0.301,0.363 l -2.978,0.373 z"
   id="path5"
   inkscape:connector-curvature="0" />
<path
   d="m 28.643,31.075 c -14.928,0 -16.217,-4.913 -16.324,-5.898 l -0.009,-0.161 0,-8.626 3,0 0,8.423 c 0.413,0.98 3.46,3.262 13.333,3.262 11.665,0 13.482,-2.846 13.487,-2.874 l 2.965,0.451 c -0.193,1.273 -1.952,5.423 -16.452,5.423 z"
   id="path7"
   inkscape:connector-curvature="0" />
<rect
   x="42.084999"
   y="16.371996"
   width="3"
   height="9.5480003"
   id="rect9" />
<path
   d="M 14.883,26.064 12.716,23.991 C 13.099,23.582 16.798,20 28.643,20 c 11.828,0 15.623,3.547 16.017,3.951 l -2.148,2.094 C 42.499,26.034 39.192,23 28.644,23 18.121,22.999 14.915,26.032 14.883,26.064 Z"
   id="path11"
   inkscape:connector-curvature="0" />
<rect
   x="48.733002"
   y="14.155993"
   width="3"
   height="11.17"
   id="rect13" />
<path
   d="m 56.089,31.009 -2.998,-0.084 c 0.01,-0.544 -0.154,-2.167 -1.021,-3.05 -0.451,-0.459 -1.064,-0.683 -1.874,-0.683 -0.814,0 -1.435,0.226 -1.897,0.69 -0.885,0.889 -1.073,2.518 -1.07,3.07 l -3,0.034 c -0.005,-0.328 0.011,-3.261 1.926,-5.203 1.027,-1.041 2.425,-1.592 4.042,-1.592 1.621,0 3.015,0.553 4.032,1.599 1.895,1.95 1.87,4.89 1.86,5.219 z"
   id="path15"
   inkscape:connector-curvature="0" />
<rect
   x="48.695"
   y="25.766008"
   width="3"
   height="5.842"
   id="rect17" />
<g
   id="g19"
   transform="translate(-7.493,-7.33)">
	<path
   d="m 76.603,21.054 -6.284,0 0,-3.112 16.278,0 0,3.112 -6.284,0 0,17.834 -3.71,0 0,-17.834 z"
   id="path21"
   inkscape:connector-curvature="0" />
	<path
   d="m 96.412,31.377 -3.231,0 0,7.511 -3.711,0 0,-20.946 6.942,0 c 5.027,0 8.109,2.244 8.109,6.732 0,4.459 -3.082,6.703 -8.109,6.703 z m -0.21,-10.323 -3.021,0 0,7.212 3.021,0 c 3.022,0 4.549,-1.077 4.549,-3.591 0,-2.544 -1.526,-3.621 -4.549,-3.621 z"
   id="path23"
   inkscape:connector-curvature="0" />
	<path
   d="m 107.813,17.942 13.525,0 0,3.112 -9.814,0 0,5.506 8.767,0 0,3.112 -8.767,0 0,6.104 10.084,0 0,3.112 -13.795,0 0,-20.946 z"
   id="path25"
   inkscape:connector-curvature="0" />
	<path
   d="m 125.11,17.942 3.711,0 0,8.319 9.455,0 0,-8.319 3.711,0 0,20.946 -3.711,0 0,-9.516 -9.455,0 0,9.516 -3.711,0 0,-20.946 z"
   id="path27"
   inkscape:connector-curvature="0" />
	<path
   d="m 146.597,17.942 3.711,0 0,14.782 9.635,-14.782 3.591,0 0,20.946 -3.711,0 0,-14.782 -9.635,14.782 -3.591,0 0,-20.946 z"
   id="path29"
   inkscape:connector-curvature="0" />
	<path
   d="m 168.143,17.942 3.711,0 0,8.319 9.455,0 0,-8.319 3.711,0 0,20.946 -3.711,0 0,-9.516 -9.455,0 0,9.516 -3.711,0 0,-20.946 z"
   id="path31"
   inkscape:connector-curvature="0" />
	<path
   d="m 189.629,17.942 13.645,0 0,3.112 -9.934,0 0,17.834 -3.711,0 0,-20.946 z"
   id="path33"
   inkscape:connector-curvature="0" />
	<path
   d="m 206.147,17.942 3.711,0 0,14.782 9.635,-14.782 3.591,0 0,20.946 -3.711,0 0,-14.782 -9.635,14.782 -3.591,0 0,-20.946 z"
   id="path35"
   inkscape:connector-curvature="0" />
</g>
</svg>