<?xml version="1.0" encoding="UTF-8" standalone="no"?>
<svg
   xmlns:dc="http://purl.org/dc/elements/1.1/"
   xmlns:cc="http://creativecommons.org/ns#"
   xmlns:rdf="http://www.w3.org/1999/02/22-rdf-syntax-ns#"
   xmlns:svg="http://www.w3.org/2000/svg"
   xmlns="http://www.w3.org/2000/svg"
   xmlns:sodipodi="http://sodipodi.sourceforge.net/DTD/sodipodi-0.dtd"
   xmlns:inkscape="http://www.inkscape.org/namespaces/inkscape"
   enable-background="new 0 0 500 500"
   height="27.516737"
   id="Layer_1"
   version="1.1"
   viewBox="0 0 27.516567 27.516737"
   width="27.516567"
   xml:space="preserve"
   inkscape:version="0.91 r13725"
   sodipodi:docname="search.svg"><metadata
     id="metadata9"><rdf:RDF><cc:Work
         rdf:about=""><dc:format>image/svg+xml</dc:format><dc:type
           rdf:resource="http://purl.org/dc/dcmitype/StillImage" /><dc:title></dc:title></cc:Work></rdf:RDF></metadata><defs
     id="defs7" /><sodipodi:namedview
     pagecolor="#ffffff"
     bordercolor="#666666"
     borderopacity="1"
     objecttolerance="10"
     gridtolerance="10"
     guidetolerance="10"
     inkscape:pageopacity="0"
     inkscape:pageshadow="2"
     inkscape:window-width="1920"
     inkscape:window-height="1018"
     id="namedview5"
     showgrid="false"
     fit-margin-top="0"
     fit-margin-left="0"
     fit-margin-right="0"
     fit-margin-bottom="0"
     inkscape:zoom="7.552"
     inkscape:cx="28.484339"
     inkscape:cy="-4.2630478"
     inkscape:window-x="-8"
     inkscape:window-y="-8"
     inkscape:window-maximized="1"
     inkscape:current-layer="Layer_1" /><path
     d="m 17.519757,7.33724 c 1.320938,0.30574 2.371874,1.4307 2.677611,2.65984 0.104381,0.57473 0.605554,1.00874 1.204915,1.00874 0.672381,0 1.222682,-0.55016 1.222682,-1.22281 0,-0.88047 -0.739679,-2.21951 -1.748755,-3.22233 -0.990569,-0.97832 -2.170516,-1.66914 -3.142511,-1.66914 -0.67238,0 -1.222951,0.56867 -1.222951,1.24139 -6.7e-5,0.59889 0.434077,1.1004 1.009009,1.20431 z M 0.7111785,23.36926 c -0.948238,0.94756 -0.948238,2.48864 0,3.4362 0.947565,0.94837 2.4887714,0.94837 3.4298758,0 l 7.0254407,-7.01945 c 1.63852,1.02166 3.571001,1.61456 5.649924,1.61456 5.912657,0 10.700149,-4.78776 10.700149,-10.70042 C 27.516568,4.7877 22.729076,0 16.816419,0 10.903828,0 6.1162697,4.7877 6.1162697,10.70015 c 0,2.07294 0.5935068,4.01141 1.6146292,5.64993 l -7.0197204,7.01918 z m 8.462267,-12.66911 c 0,-4.21875 3.4238185,-7.64297 7.6429735,-7.64297 4.219154,0 7.64304,3.42422 7.64304,7.64297 0,4.21922 -3.423886,7.64304 -7.64304,7.64304 -4.219155,0 -7.6429735,-3.42382 -7.6429735,-7.64304 z"
     id="path3"
     inkscape:connector-curvature="0"
     style="clip-rule:evenodd;fill:#dbdbdb;fill-rule:evenodd;opacity:1;fill-opacity:1" /></svg>