<?xml version="1.0" encoding="UTF-8" standalone="no"?>
<svg
   xmlns:dc="http://purl.org/dc/elements/1.1/"
   xmlns:cc="http://creativecommons.org/ns#"
   xmlns:rdf="http://www.w3.org/1999/02/22-rdf-syntax-ns#"
   xmlns:svg="http://www.w3.org/2000/svg"
   xmlns="http://www.w3.org/2000/svg"
   xmlns:sodipodi="http://sodipodi.sourceforge.net/DTD/sodipodi-0.dtd"
   xmlns:inkscape="http://www.inkscape.org/namespaces/inkscape"
   height="32"
   id="Layer_1"
   version="1.1"
   viewBox="0 0 32 32"
   width="32"
   xml:space="preserve"
   inkscape:version="0.91 r13725"
   sodipodi:docname="twitter.svg"><metadata
     id="metadata9"><rdf:RDF><cc:Work
         rdf:about=""><dc:format>image/svg+xml</dc:format><dc:type
           rdf:resource="http://purl.org/dc/dcmitype/StillImage" /><dc:title></dc:title></cc:Work></rdf:RDF></metadata><defs
     id="defs7" /><sodipodi:namedview
     pagecolor="#ffffff"
     bordercolor="#666666"
     borderopacity="1"
     objecttolerance="10"
     gridtolerance="10"
     guidetolerance="10"
     inkscape:pageopacity="0"
     inkscape:pageshadow="2"
     inkscape:window-width="1920"
     inkscape:window-height="1018"
     id="namedview5"
     showgrid="false"
     fit-margin-top="0"
     fit-margin-left="0"
     fit-margin-right="0"
     fit-margin-bottom="0"
     inkscape:zoom="3.5223881"
     inkscape:cx="29.5"
     inkscape:cy="30.5"
     inkscape:window-x="-8"
     inkscape:window-y="-8"
     inkscape:window-maximized="1"
     inkscape:current-layer="Layer_1" /><path
     d="m 18.2224,9.750933 c -1.3968,0.508267 -2.279466,1.8192 -2.1792,3.253867 l 0.0336,0.5536 -0.558933,-0.06773 C 13.484267,13.230936 11.7072,12.34987 10.1984,10.869336 l -0.7376,-0.7344 -0.189867,0.542401 c -0.402134,1.209066 -0.145067,2.485866 0.6928,3.344532 0.446934,0.474667 0.346133,0.542401 -0.424533,0.259734 -0.268267,-0.09013 -0.502933,-0.157867 -0.525333,-0.124266 -0.07787,0.07947 0.189866,1.107199 0.402133,1.514133 0.290667,0.565333 0.882666,1.118399 1.5312,1.4464 l 0.547733,0.259733 -0.647999,0.0112 c -0.625601,0 -0.648001,0.0112 -0.580801,0.249067 0.223467,0.7344 1.106133,1.514133 2.089601,1.853333 l 0.6928,0.2368 -0.603201,0.3616 c -0.893866,0.520533 -1.944533,0.813866 -2.9952,0.835733 -0.503467,0.0112 -0.9168,0.05653 -0.9168,0.09066 0,0.112533 1.363734,0.745067 2.1568,0.994133 2.380267,0.7344 5.208,0.4176 7.331201,-0.836267 1.5088,-0.892799 3.017066,-2.666666 3.7216,-4.384532 0.380266,-0.914667 0.759999,-2.587201 0.759999,-3.388801 0,-0.52 0.0336,-0.587733 0.6592,-1.209066 0.369067,-0.361601 0.7152,-0.7568 0.7824,-0.869867 0.112,-0.214934 0.100267,-0.214934 -0.469333,-0.02294 -0.949867,0.3392 -1.084267,0.293866 -0.614401,-0.2144 0.346134,-0.3616 0.760001,-1.017067 0.760001,-1.209067 0,-0.0336 -0.167466,0.0224 -0.357867,0.124267 -0.201066,0.113066 -0.647999,0.282667 -0.983467,0.384 L 21.676267,10.57599 21.128533,10.202656 C 20.826667,9.999456 20.402666,9.773323 20.178667,9.70559 19.608533,9.547723 18.736533,9.570123 18.2224,9.75093 Z M 16,32 C 7.163734,32 0,24.836266 0,16 0,7.1632 7.163734,0 16,0 c 8.836266,0 16,7.1632 16,16 0,8.836266 -7.163734,16 -16,16 z"
     style="clip-rule:evenodd;fill:#262626;fill-rule:evenodd;fill-opacity:1"
     id="path3"
     inkscape:connector-curvature="0" /></svg>