<?xml version="1.0" encoding="UTF-8" standalone="no"?>
<svg
   xmlns:dc="http://purl.org/dc/elements/1.1/"
   xmlns:cc="http://creativecommons.org/ns#"
   xmlns:rdf="http://www.w3.org/1999/02/22-rdf-syntax-ns#"
   xmlns:svg="http://www.w3.org/2000/svg"
   xmlns="http://www.w3.org/2000/svg"
   xmlns:sodipodi="http://sodipodi.sourceforge.net/DTD/sodipodi-0.dtd"
   xmlns:inkscape="http://www.inkscape.org/namespaces/inkscape"
   height="35"
   version="1.1"
   viewBox="0 0 47 35"
   width="47"
   id="svg2"
   inkscape:version="0.91 r13725"
   sodipodi:docname="youtube2.svg">
  <metadata
     id="metadata16">
    <rdf:RDF>
      <cc:Work
         rdf:about="">
        <dc:format>image/svg+xml</dc:format>
        <dc:type
           rdf:resource="http://purl.org/dc/dcmitype/StillImage" />
        <dc:title></dc:title>
      </cc:Work>
    </rdf:RDF>
  </metadata>
  <sodipodi:namedview
     pagecolor="#ffffff"
     bordercolor="#666666"
     borderopacity="1"
     objecttolerance="10"
     gridtolerance="10"
     guidetolerance="10"
     inkscape:pageopacity="0"
     inkscape:pageshadow="2"
     inkscape:window-width="1920"
     inkscape:window-height="1018"
     id="namedview14"
     showgrid="false"
     fit-margin-top="0"
     fit-margin-left="0"
     fit-margin-right="0"
     fit-margin-bottom="0"
     inkscape:zoom="14.75"
     inkscape:cx="10"
     inkscape:cy="16.067797"
     inkscape:window-x="-8"
     inkscape:window-y="-8"
     inkscape:window-maximized="1"
     inkscape:current-layer="svg2" />
  <desc
     id="desc6" />
  <defs
     id="defs8" />
  <g
     id="Page-1"
     style="fill:none;fill-rule:evenodd;stroke:none;stroke-width:1"
     transform="translate(0,10.932203)">
    <g
       id="Icons-AV"
       transform="translate(-42,-171)"
       style="fill:#000000">
      <g
         id="video-youtube"
         transform="translate(42,171)">
        <path
           d="M 42.299998,23.192797 C 40.89,23.630297 32.195,24.067797 23.5,24.067797 c -8.695,0 -17.3900001,-0.4375 -18.8,-0.875 C 0.93999998,22.099045 0,14.442795 0,6.5677966 0,-1.3072044 0.93999998,-8.9634533 4.7,-10.057203 c 1.4099999,-0.4375 10.105,-0.875 18.8,-0.875 8.695,0 17.39,0.4375 18.799998,0.875 C 46.06,-8.9634533 47,-1.3072044 47,6.5677966 47,14.442795 46.06,22.099045 42.299998,23.192797 l 0,0 z M 18.8,-3.2759541 18.8,16.411547 32.899999,6.5677966 18.8,-3.2759541 l 0,0 z"
           id="Shape"
           style="fill:#ffffff;fill-opacity:1"
           inkscape:connector-curvature="0" />
      </g>
    </g>
  </g>
</svg>
